<svg xmlns="http://www.w3.org/2000/svg" viewBox="0 0 420 520" width="100%" height="100%" role="img" aria-label="RICE: rice-shaped boundary containing enlarged 4-gene causal network with intervention I on G2 and unmeasured confounding U (dashed).">
  <defs>
    <marker id="arrowSolid" markerWidth="7" markerHeight="6" refX="12" refY="3" orient="auto">
      <polygon points="0 0, 7 3, 0 6" fill="#333"/>
    </marker>
    <marker id="arrowDashed" markerWidth="7" markerHeight="6" refX="12" refY="3" orient="auto">
      <polygon points="0 0, 7 3, 0 6" fill="#999"/>
    </marker>

    <linearGradient id="riceStroke" x1="0%" y1="0%" x2="100%" y2="100%">
      <stop offset="0%" stop-color="#E6C785"/>
      <stop offset="100%" stop-color="#C19A6B"/>
    </linearGradient>

    <filter id="softShadow" x="-20%" y="-20%" width="140%" height="140%">
      <feDropShadow dx="0" dy="2" stdDeviation="2.5" flood-color="#000" flood-opacity="0.12"/>
    </filter>
  </defs>

  <rect width="420" height="520" fill="#FFFFFF"/>

  <!-- Rice boundary -->
  <path d="
      M 210 38
      C 310 54, 360 150, 360 260
      C 360 372, 310 468, 210 484
      C 110 468, 60 372, 60 260
      C 60 150, 110 54, 210 38
      Z"
    fill="#FCF7E8"
    stroke="url(#riceStroke)"
    stroke-width="10"
    stroke-linecap="round"
    stroke-linejoin="round"
    filter="url(#softShadow)"/>

  <path d="M 210 56 C 226 178, 226 342, 210 466"
    fill="none" stroke="#C19A6B" stroke-width="2" opacity="0.30"/>

  <!-- EDGES -->
  <g stroke="#333" stroke-width="3.2" fill="none" marker-end="url(#arrowSolid)">
    <!-- FIXED: G1 -> G2 now points to center -->
    <path d="M 150 210 L 270 270"/>

    <path d="M 270 285 L 210 365"/>
    <path d="M 150 225 L 150 345"/>
    <path d="M 156.7 228.9 L 203.3 361.1"/>
  </g>

  <!-- Intervention -->
  <g stroke="#7A1FA2" stroke-width="3.2" fill="none" marker-end="url(#arrowSolid)">
    <path d="M 270 130 L 270 250"/>
  </g>

  <!-- Unmeasured confounding -->
  <g stroke="#999" stroke-width="2.8" fill="none" stroke-dasharray="7,5" marker-end="url(#arrowDashed)">
    <path d="M 105 330 L 145 215"/>
    <path d="M 105 330 L 255 265"/>
  </g>

  <!-- NODES -->
  <g>
    <circle cx="270" cy="130" r="17" fill="#7A1FA2" stroke="#FFFFFF" stroke-width="3"/>

    <circle cx="150" cy="210" r="20" fill="#2F6FDB" stroke="#FFFFFF" stroke-width="3"/>
    <circle cx="270" cy="270" r="20" fill="#2F6FDB" stroke="#FFFFFF" stroke-width="3"/>
    <circle cx="210" cy="380" r="20" fill="#2F6FDB" stroke="#FFFFFF" stroke-width="3"/>
    <circle cx="150" cy="360" r="21" fill="#2F6FDB" stroke="#FFFFFF" stroke-width="3"/>

    <circle cx="105" cy="330" r="13" fill="#FFFFFF" stroke="#999" stroke-width="2.2" stroke-dasharray="5,3"/>
  </g>

  <!-- LABELS -->
  <g font-family="Helvetica, Arial, sans-serif" text-anchor="middle" font-weight="800" pointer-events="none">
    <text x="270" y="135" font-size="12" fill="#FFFFFF">I</text>

    <text x="150" y="215" font-size="12" fill="#FFFFFF">G1</text>
    <text x="270" y="275" font-size="12" fill="#FFFFFF">G2</text>
    <text x="210" y="385" font-size="12" fill="#FFFFFF">G3</text>
    <text x="150" y="365" font-size="12" fill="#FFFFFF">G4</text>

    <text x="105" y="334" font-size="12" fill="#777">U</text>
  </g>

  <text x="210" y="470"
    font-family="Helvetica, Arial, sans-serif"
    font-size="54"
    font-weight="800"
    fill="#333"
    text-anchor="middle"
    letter-spacing="2">
    RICE
  </text>

  <text x="210" y="498"
    font-family="Helvetica, Arial, sans-serif"
    font-size="21"
    fill="#555"
    text-anchor="middle">
    Robust Identification of Causal Network
  </text>
</svg>
